<svg id="Capa_1" data-name="Capa 1" xmlns="http://www.w3.org/2000/svg" viewBox="0 0 419.89 108.63"><defs><style>.cls-1{fill:#2e014f;}.cls-2{fill:aqua;}.cls-3{fill:#00ced8;}.cls-4{fill:#fff;}.cls-5{fill:#6c577c;}</style></defs><circle class="cls-1" cx="54.31" cy="54.31" r="54.31"/><circle class="cls-2" cx="54.31" cy="54.31" r="43.48"/><path class="cls-1" d="M154.08,51c.35.79.7,1.6,1,2.43.32-.85.67-1.68,1-2.48s.74-1.58,1.13-2.33l10.83-21.34a3.22,3.22,0,0,1,.6-.86,2,2,0,0,1,.68-.45,2.26,2.26,0,0,1,.85-.14h8.59V68H170.2V43.72c0-1.18.06-2.46.17-3.83l-11.18,21.7a3.66,3.66,0,0,1-1.4,1.53,3.88,3.88,0,0,1-2,.53h-1.33a3.87,3.87,0,0,1-2-.53A3.62,3.62,0,0,1,151,61.59L139.78,39.86c.08.68.14,1.35.18,2s0,1.28,0,1.84V68h-8.63V25.82H140a2.35,2.35,0,0,1,.86.14,2.12,2.12,0,0,1,.68.45,3.46,3.46,0,0,1,.59.86L153,48.69C153.35,49.43,153.72,50.19,154.08,51Z" transform="translate(-4.57 -4.69)"/><path class="cls-1" d="M198.41,38.18a15,15,0,0,1,5.81,1.08,12,12,0,0,1,4.4,3,13.3,13.3,0,0,1,2.78,4.76,18.93,18.93,0,0,1,1,6.25,18.81,18.81,0,0,1-1,6.25,13.25,13.25,0,0,1-2.78,4.75,12,12,0,0,1-4.4,3,16.45,16.45,0,0,1-11.62,0,12.2,12.2,0,0,1-4.41-3,13.31,13.31,0,0,1-2.81-4.75,20.22,20.22,0,0,1,0-12.5,13.36,13.36,0,0,1,2.81-4.76,12.23,12.23,0,0,1,4.41-3A15,15,0,0,1,198.41,38.18Zm0,26.19q4.35,0,6.49-2.91T207,53.33q0-5.23-2.14-8.16a7.52,7.52,0,0,0-6.49-2.93,9,9,0,0,0-3.82.75,7.2,7.2,0,0,0-2.71,2.18,9.39,9.39,0,0,0-1.62,3.49,20.46,20.46,0,0,0,0,9.34,9.32,9.32,0,0,0,1.62,3.46,7.15,7.15,0,0,0,2.71,2.16A9,9,0,0,0,198.41,64.37Z" transform="translate(-4.57 -4.69)"/><path class="cls-1" d="M235.55,43.49a1.16,1.16,0,0,1-1.08.63,2,2,0,0,1-1-.32c-.37-.21-.82-.45-1.35-.71a12.53,12.53,0,0,0-1.89-.72,9.2,9.2,0,0,0-2.61-.33,7.8,7.8,0,0,0-2.35.33,5.74,5.74,0,0,0-1.78.91,4.12,4.12,0,0,0-1.13,1.35,3.62,3.62,0,0,0-.39,1.66,2.8,2.8,0,0,0,.65,1.89,5.77,5.77,0,0,0,1.73,1.3,14.47,14.47,0,0,0,2.43,1q1.37.42,2.79.9c1,.32,1.89.67,2.8,1.06a9.78,9.78,0,0,1,2.43,1.45A6.51,6.51,0,0,1,236.55,56a6.58,6.58,0,0,1,.65,3,9.46,9.46,0,0,1-.73,3.75,8.12,8.12,0,0,1-2.14,3,10.35,10.35,0,0,1-3.48,2,14.33,14.33,0,0,1-4.75.72,15,15,0,0,1-5.56-1,14.27,14.27,0,0,1-4.23-2.57l1.22-2a1.81,1.81,0,0,1,.55-.58,1.58,1.58,0,0,1,.84-.2,2,2,0,0,1,1.1.41c.39.27.86.57,1.41.89a10.62,10.62,0,0,0,2,.9,9.18,9.18,0,0,0,2.94.41,8.07,8.07,0,0,0,2.64-.39,5.59,5.59,0,0,0,1.88-1.06A4.27,4.27,0,0,0,232,61.76a4.77,4.77,0,0,0,.36-1.85,3.09,3.09,0,0,0-.65-2A5.61,5.61,0,0,0,230,56.53a14.58,14.58,0,0,0-2.44-1c-.92-.28-1.86-.57-2.81-.88a29.54,29.54,0,0,1-2.81-1.06,9.84,9.84,0,0,1-2.45-1.49,6.76,6.76,0,0,1-1.72-2.22,7.08,7.08,0,0,1-.66-3.2,7.89,7.89,0,0,1,2.73-6,10,10,0,0,1,3.27-1.87,13.16,13.16,0,0,1,4.43-.7,14,14,0,0,1,5.2.92,12.45,12.45,0,0,1,4,2.5Z" transform="translate(-4.57 -4.69)"/><path class="cls-1" d="M252.78,68.45a7,7,0,0,1-5.34-1.94,7.71,7.71,0,0,1-1.87-5.59V43H242a1.17,1.17,0,0,1-.78-.27,1.08,1.08,0,0,1-.32-.86v-2l4.81-.61,1.19-9.07a1.09,1.09,0,0,1,.38-.71,1.2,1.2,0,0,1,.81-.27h2.6V39.23h8.4V43h-8.4V60.58a3.75,3.75,0,0,0,.9,2.75,3.13,3.13,0,0,0,2.32.9,4.16,4.16,0,0,0,1.4-.22,6.65,6.65,0,0,0,1-.48,8,8,0,0,0,.74-.48,1,1,0,0,1,.54-.22.89.89,0,0,1,.72.5l1.51,2.46a9.73,9.73,0,0,1-3.22,2A11,11,0,0,1,252.78,68.45Z" transform="translate(-4.57 -4.69)"/><path class="cls-1" d="M303,46.87a22.18,22.18,0,0,1-1.58,8.45A19.7,19.7,0,0,1,297,62a20.1,20.1,0,0,1-6.91,4.4,24.26,24.26,0,0,1-9,1.58h-16.4V25.79h16.4a24.26,24.26,0,0,1,9,1.59,20.4,20.4,0,0,1,6.91,4.4,19.66,19.66,0,0,1,4.45,6.68A22.09,22.09,0,0,1,303,46.87Zm-10,0a18.37,18.37,0,0,0-.82-5.64A12,12,0,0,0,289.87,37a10.18,10.18,0,0,0-3.72-2.69,12.61,12.61,0,0,0-5-.94h-6.55V60.46h6.55a12.61,12.61,0,0,0,5-.94,10.09,10.09,0,0,0,3.72-2.7,11.88,11.88,0,0,0,2.33-4.27A18.5,18.5,0,0,0,293,46.87Z" transform="translate(-4.57 -4.69)"/><path class="cls-1" d="M315.38,29.44a3.15,3.15,0,0,1-.31,1.4,3.94,3.94,0,0,1-2,2,3.61,3.61,0,0,1-1.42.29,3.52,3.52,0,0,1-1.41-.29,3.83,3.83,0,0,1-1.15-.8,3.71,3.71,0,0,1-.8-1.16,3.44,3.44,0,0,1-.29-1.4,3.72,3.72,0,0,1,1.09-2.63,3.8,3.8,0,0,1,1.15-.79,3.52,3.52,0,0,1,1.41-.29,3.61,3.61,0,0,1,1.42.29,3.78,3.78,0,0,1,2,2A3.39,3.39,0,0,1,315.38,29.44Zm-1.16,9.21V68h-5.16V38.65Z" transform="translate(-4.57 -4.69)"/><path class="cls-1" d="M333.19,38.16a14.58,14.58,0,0,1,3.58.42,11.33,11.33,0,0,1,3,1.23h8v1.91c0,.64-.4,1-1.22,1.22l-3.33.46a8.86,8.86,0,0,1,1,4.2,9,9,0,0,1-.83,3.89,8.77,8.77,0,0,1-2.29,3,10.15,10.15,0,0,1-3.47,1.91,13.84,13.84,0,0,1-4.42.67,14.79,14.79,0,0,1-3.88-.49,5,5,0,0,0-1.41,1.29,2.4,2.4,0,0,0-.47,1.34,1.84,1.84,0,0,0,.84,1.64,5.82,5.82,0,0,0,2.23.79,18.61,18.61,0,0,0,3.15.24h3.61a20.54,20.54,0,0,1,3.61.32A11,11,0,0,1,344,63.26a5.87,5.87,0,0,1,2.23,2,6,6,0,0,1,.84,3.34,7.82,7.82,0,0,1-.94,3.7,9.88,9.88,0,0,1-2.71,3.18,13.8,13.8,0,0,1-4.31,2.23,18.39,18.39,0,0,1-5.77.83,22.46,22.46,0,0,1-5.63-.63,13.41,13.41,0,0,1-4-1.71,7.58,7.58,0,0,1-2.39-2.48,5.92,5.92,0,0,1-.8-2.95,5.28,5.28,0,0,1,1.38-3.69,9.44,9.44,0,0,1,3.78-2.43,5.25,5.25,0,0,1-2-1.54,4.19,4.19,0,0,1-.73-2.59,4,4,0,0,1,.23-1.32,5,5,0,0,1,.71-1.34,7.28,7.28,0,0,1,1.17-1.27,7,7,0,0,1,1.62-1.07,9.19,9.19,0,0,1-3.4-3.23,8.89,8.89,0,0,1-1.23-4.71,9.05,9.05,0,0,1,.82-3.9,8.53,8.53,0,0,1,2.31-3,10.53,10.53,0,0,1,3.52-1.9A14.45,14.45,0,0,1,333.19,38.16Zm9.15,31.32a2.61,2.61,0,0,0-.6-1.8,4,4,0,0,0-1.66-1.05,11.49,11.49,0,0,0-2.4-.55,21.93,21.93,0,0,0-2.87-.17h-3.07a10.78,10.78,0,0,1-3-.4,8.62,8.62,0,0,0-2.68,1.92,3.84,3.84,0,0,0-1,2.7,3.55,3.55,0,0,0,.51,1.84,4.34,4.34,0,0,0,1.55,1.48,9.44,9.44,0,0,0,2.62,1,16.87,16.87,0,0,0,3.72.36,16.34,16.34,0,0,0,3.74-.39A9.13,9.13,0,0,0,340,73.32a5.27,5.27,0,0,0,1.76-1.68A4,4,0,0,0,342.34,69.48Zm-9.15-15.83a8.14,8.14,0,0,0,2.77-.43A5.62,5.62,0,0,0,338,52a4.94,4.94,0,0,0,1.22-1.87,6.77,6.77,0,0,0,.4-2.39A5.7,5.7,0,0,0,338,43.46a7.87,7.87,0,0,0-9.51,0,5.7,5.7,0,0,0-1.63,4.28,6.56,6.56,0,0,0,.42,2.39A5.08,5.08,0,0,0,328.47,52a5.66,5.66,0,0,0,2,1.22A7.88,7.88,0,0,0,333.19,53.65Z" transform="translate(-4.57 -4.69)"/><path class="cls-1" d="M359.81,29.44a3.29,3.29,0,0,1-.3,1.4,4.14,4.14,0,0,1-.82,1.16,3.69,3.69,0,0,1-1.17.8,3.57,3.57,0,0,1-1.42.29,3.44,3.44,0,0,1-1.4-.29,3.9,3.9,0,0,1-2-2,3.44,3.44,0,0,1-.29-1.4,3.7,3.7,0,0,1,.29-1.44,3.89,3.89,0,0,1,.8-1.19A3.85,3.85,0,0,1,354.7,26a3.44,3.44,0,0,1,1.4-.29,3.57,3.57,0,0,1,1.42.29,3.66,3.66,0,0,1,1.17.79,4.14,4.14,0,0,1,.82,1.19A3.54,3.54,0,0,1,359.81,29.44Zm-1.16,9.21V68H353.5V38.65Z" transform="translate(-4.57 -4.69)"/><path class="cls-1" d="M376.64,68.45a7.07,7.07,0,0,1-5.35-1.94,7.75,7.75,0,0,1-1.86-5.59V43h-3.54a1.16,1.16,0,0,1-.78-.27,1.08,1.08,0,0,1-.32-.86v-2l4.81-.61,1.19-9.07a1.12,1.12,0,0,1,.37-.71,1.25,1.25,0,0,1,.82-.27h2.6V39.23H383V43h-8.4V60.58a3.75,3.75,0,0,0,.9,2.75,3.13,3.13,0,0,0,2.32.9,4.16,4.16,0,0,0,1.4-.22,6.65,6.65,0,0,0,1-.48,8,8,0,0,0,.74-.48,1,1,0,0,1,.54-.22.89.89,0,0,1,.72.5l1.51,2.46a9.73,9.73,0,0,1-3.22,2A11,11,0,0,1,376.64,68.45Z" transform="translate(-4.57 -4.69)"/><path class="cls-1" d="M410.91,68h-2.29a2.82,2.82,0,0,1-1.22-.23,1.3,1.3,0,0,1-.61-1l-.58-2.72c-.77.7-1.52,1.32-2.26,1.87a13,13,0,0,1-2.31,1.39,12.2,12.2,0,0,1-2.6.86,15,15,0,0,1-3.05.28,10.67,10.67,0,0,1-3.2-.47,7.2,7.2,0,0,1-2.59-1.44,6.86,6.86,0,0,1-1.76-2.43,8.59,8.59,0,0,1-.65-3.47,6.45,6.45,0,0,1,1-3.36,8.26,8.26,0,0,1,3.08-2.86,19.77,19.77,0,0,1,5.58-2.05,37.55,37.55,0,0,1,8.43-.8V49.26a8,8,0,0,0-1.47-5.2A5.3,5.3,0,0,0,400,42.3a9.16,9.16,0,0,0-3.17.48,11.29,11.29,0,0,0-2.23,1.07c-.63.39-1.17.75-1.62,1.07a2.32,2.32,0,0,1-1.35.48,1.49,1.49,0,0,1-.91-.28,2,2,0,0,1-.62-.68l-.93-1.65a16.77,16.77,0,0,1,5.24-3.5,16.08,16.08,0,0,1,6.23-1.16,11.18,11.18,0,0,1,4.38.81,8.94,8.94,0,0,1,3.21,2.26,9.44,9.44,0,0,1,2,3.5,14.73,14.73,0,0,1,.67,4.52Zm-13.39-3.16a10.68,10.68,0,0,0,2.49-.27,9.82,9.82,0,0,0,2.13-.78,11.56,11.56,0,0,0,1.92-1.23,18.17,18.17,0,0,0,1.78-1.66v-6a34.73,34.73,0,0,0-6.06.45,17,17,0,0,0-4,1.18,5.79,5.79,0,0,0-2.28,1.72,3.74,3.74,0,0,0-.71,2.22,5,5,0,0,0,.38,2,3.86,3.86,0,0,0,1,1.38,4.11,4.11,0,0,0,1.51.79A7.07,7.07,0,0,0,397.52,64.83Z" transform="translate(-4.57 -4.69)"/><path class="cls-1" d="M424.46,25.32V68h-5.15V25.32Z" transform="translate(-4.57 -4.69)"/><circle class="cls-3" cx="54.31" cy="54.31" r="30.61"/><circle class="cls-1" cx="54.31" cy="54.31" r="18.04"/><circle class="cls-4" cx="49.48" cy="47.07" r="9.48"/><path class="cls-5" d="M138.77,90.56a.62.62,0,0,1-.16.19.36.36,0,0,1-.22.06.63.63,0,0,1-.34-.14,4.43,4.43,0,0,0-.48-.32,3.6,3.6,0,0,0-.71-.32,3,3,0,0,0-1-.15,2.93,2.93,0,0,0-1,.15,2.14,2.14,0,0,0-.71.41,1.58,1.58,0,0,0-.43.6,1.86,1.86,0,0,0-.15.75,1.38,1.38,0,0,0,.25.85,2.22,2.22,0,0,0,.67.57,5.11,5.11,0,0,0,.94.42l1.07.36q.56.2,1.08.42a4,4,0,0,1,.94.6,2.67,2.67,0,0,1,.67.88,2.86,2.86,0,0,1,.25,1.28,4.21,4.21,0,0,1-.27,1.51,3.5,3.5,0,0,1-.8,1.22,3.7,3.7,0,0,1-1.29.82,4.74,4.74,0,0,1-1.74.3,5.29,5.29,0,0,1-2.17-.43,5.13,5.13,0,0,1-1.67-1.17l.48-.78a.65.65,0,0,1,.17-.16.4.4,0,0,1,.22-.06.68.68,0,0,1,.41.19,5.3,5.3,0,0,0,.57.42,4.11,4.11,0,0,0,.84.42,3.27,3.27,0,0,0,1.2.2,3.12,3.12,0,0,0,1-.17,2.13,2.13,0,0,0,.78-.45,1.85,1.85,0,0,0,.49-.71,2.24,2.24,0,0,0,.17-.91,1.51,1.51,0,0,0-.25-.91,2.12,2.12,0,0,0-.66-.6,4.29,4.29,0,0,0-.94-.4L135,95.16c-.37-.12-.73-.26-1.08-.41a3.23,3.23,0,0,1-.93-.6,2.64,2.64,0,0,1-.67-.92,3.53,3.53,0,0,1,0-2.61,3.33,3.33,0,0,1,.73-1.08,3.66,3.66,0,0,1,1.19-.75,4.3,4.3,0,0,1,1.62-.28,5.14,5.14,0,0,1,1.87.32,4.5,4.5,0,0,1,1.48.94Z" transform="translate(-4.57 -4.69)"/><path class="cls-5" d="M153.38,88.64V90H147.5v4.07h4.76v1.3H147.5v4.18h5.88v1.34h-7.55V88.64Z" transform="translate(-4.57 -4.69)"/><path class="cls-5" d="M165.49,99.68a8.46,8.46,0,0,0,.91-.05,4.51,4.51,0,0,0,.78-.14,5.6,5.6,0,0,0,.69-.22,5.51,5.51,0,0,0,.65-.31v-2.7h-1.89a.4.4,0,0,1-.27-.09.32.32,0,0,1-.09-.23V95H170v4.7a7.31,7.31,0,0,1-1,.58,6.67,6.67,0,0,1-1.06.41,7.52,7.52,0,0,1-1.22.25,12.2,12.2,0,0,1-1.41.08,6.24,6.24,0,0,1-2.44-.46A5.62,5.62,0,0,1,161,99.28a6,6,0,0,1-1.25-2,7,7,0,0,1-.45-2.54,7.2,7.2,0,0,1,.44-2.56A5.55,5.55,0,0,1,163,89a7.11,7.11,0,0,1,2.59-.45,8.07,8.07,0,0,1,1.35.1,6.33,6.33,0,0,1,1.16.31,5.07,5.07,0,0,1,1,.49,5.82,5.82,0,0,1,.84.64l-.47.75a.41.41,0,0,1-.37.23.64.64,0,0,1-.3-.09l-.48-.29a5.37,5.37,0,0,0-.64-.33,7,7,0,0,0-.9-.27,6.23,6.23,0,0,0-1.23-.11,4.87,4.87,0,0,0-1.87.34,3.92,3.92,0,0,0-1.42,1,4.22,4.22,0,0,0-.91,1.52,6.57,6.57,0,0,0,0,4.08,4.32,4.32,0,0,0,.93,1.54,4.13,4.13,0,0,0,1.42,1A4.78,4.78,0,0,0,165.49,99.68Z" transform="translate(-4.57 -4.69)"/><path class="cls-5" d="M181.6,99.57a3.44,3.44,0,0,0,1.36-.26,2.84,2.84,0,0,0,1-.71,3,3,0,0,0,.63-1.11,4.17,4.17,0,0,0,.22-1.41V88.64h1.65v7.44a5.51,5.51,0,0,1-.34,2,4.58,4.58,0,0,1-1,1.57,4.39,4.39,0,0,1-1.54,1,5.61,5.61,0,0,1-4.06,0,4.39,4.39,0,0,1-1.54-1,4.77,4.77,0,0,1-1-1.57,5.74,5.74,0,0,1-.34-2V88.64h1.65v7.43a4.17,4.17,0,0,0,.22,1.41,3.35,3.35,0,0,0,.63,1.11,3.14,3.14,0,0,0,1,.72A3.44,3.44,0,0,0,181.6,99.57Z" transform="translate(-4.57 -4.69)"/><path class="cls-5" d="M195.41,95.78v5.1h-1.65V88.64h3.46a7.48,7.48,0,0,1,2,.24,3.62,3.62,0,0,1,1.39.68,2.68,2.68,0,0,1,.82,1.07,3.53,3.53,0,0,1,.26,1.4,3.47,3.47,0,0,1-.2,1.22,3.34,3.34,0,0,1-.6,1A3.37,3.37,0,0,1,200,95a4.92,4.92,0,0,1-1.27.48,1.77,1.77,0,0,1,.54.52l3.58,4.86h-1.47a.71.71,0,0,1-.67-.35l-3.18-4.37a.84.84,0,0,0-.31-.29,1.18,1.18,0,0,0-.52-.09Zm0-1.21h1.73a4.46,4.46,0,0,0,1.28-.17,2.7,2.7,0,0,0,.92-.5,2,2,0,0,0,.56-.76,2.46,2.46,0,0,0,.19-1,2,2,0,0,0-.72-1.65,3.5,3.5,0,0,0-2.15-.55h-1.81Z" transform="translate(-4.57 -4.69)"/><path class="cls-5" d="M210.83,100.88h-1.66V88.64h1.66Z" transform="translate(-4.57 -4.69)"/><path class="cls-5" d="M229,94.77a6.87,6.87,0,0,1-.43,2.5,5.67,5.67,0,0,1-1.24,1.93,5.27,5.27,0,0,1-1.9,1.24,6.49,6.49,0,0,1-2.46.44h-4.58V88.64H223a6.69,6.69,0,0,1,2.46.44,5.42,5.42,0,0,1,1.9,1.25,5.77,5.77,0,0,1,1.24,1.93A7,7,0,0,1,229,94.77Zm-1.7,0a6,6,0,0,0-.31-2,4.12,4.12,0,0,0-.87-1.5,3.57,3.57,0,0,0-1.37-.94A4.63,4.63,0,0,0,223,90h-2.91v9.56H223a4.63,4.63,0,0,0,1.78-.32,3.69,3.69,0,0,0,1.37-.94,4,4,0,0,0,.87-1.5A6,6,0,0,0,227.29,94.77Z" transform="translate(-4.57 -4.69)"/><path class="cls-5" d="M245.23,100.88H244a.52.52,0,0,1-.36-.11.58.58,0,0,1-.2-.28l-1.15-2.95h-5.49l-1.15,2.95a.66.66,0,0,1-.2.28.55.55,0,0,1-.36.11h-1.28l4.89-12.24h1.69Zm-8-4.54h4.57l-1.92-5a8.72,8.72,0,0,1-.37-1.15c-.06.23-.12.44-.18.64s-.12.37-.18.52Z" transform="translate(-4.57 -4.69)"/><path class="cls-5" d="M261.66,94.77a6.66,6.66,0,0,1-.44,2.5A5.5,5.5,0,0,1,260,99.2a5.35,5.35,0,0,1-1.9,1.24,6.49,6.49,0,0,1-2.46.44h-4.58V88.64h4.58a6.69,6.69,0,0,1,2.46.44,5.52,5.52,0,0,1,1.9,1.25,5.6,5.6,0,0,1,1.23,1.93A6.75,6.75,0,0,1,261.66,94.77Zm-1.7,0a6,6,0,0,0-.31-2,4.12,4.12,0,0,0-.87-1.5,3.57,3.57,0,0,0-1.37-.94,4.63,4.63,0,0,0-1.78-.33h-2.91v9.56h2.91a4.63,4.63,0,0,0,1.78-.32,3.69,3.69,0,0,0,1.37-.94,4,4,0,0,0,.87-1.5A6,6,0,0,0,260,94.77Z" transform="translate(-4.57 -4.69)"/><path class="cls-5" d="M283.3,88.64V90h-5.88v4.07h4.76v1.3h-4.76v4.18h5.88v1.34h-7.54V88.64Z" transform="translate(-4.57 -4.69)"/><path class="cls-5" d="M291.14,88.7a.77.77,0,0,1,.24.22l7.09,9.23c0-.15,0-.29,0-.43s0-.28,0-.41V88.64h1.45v12.24H299a.73.73,0,0,1-.32-.06.92.92,0,0,1-.26-.23l-7.09-9.22,0,.42c0,.13,0,.26,0,.37v8.72H290V88.64h.86A.69.69,0,0,1,291.14,88.7Z" transform="translate(-4.57 -4.69)"/><path class="cls-5" d="M323.05,88.64V90H319.1v10.85h-1.66V90h-4V88.64Z" transform="translate(-4.57 -4.69)"/><path class="cls-5" d="M333.82,99.57a3.44,3.44,0,0,0,1.36-.26,2.84,2.84,0,0,0,1-.71,3.2,3.2,0,0,0,.64-1.11,4.44,4.44,0,0,0,.21-1.41V88.64h1.65v7.44a5.74,5.74,0,0,1-.33,2,4.77,4.77,0,0,1-1,1.57,4.44,4.44,0,0,1-1.53,1,5.64,5.64,0,0,1-4.07,0,4.48,4.48,0,0,1-1.54-1,4.77,4.77,0,0,1-1-1.57,5.74,5.74,0,0,1-.33-2V88.64h1.64v7.43a4.44,4.44,0,0,0,.22,1.41,3.35,3.35,0,0,0,.63,1.11,3.14,3.14,0,0,0,1,.72A3.47,3.47,0,0,0,333.82,99.57Z" transform="translate(-4.57 -4.69)"/><path class="cls-5" d="M352.08,90.56a.62.62,0,0,1-.16.19.38.38,0,0,1-.22.06.63.63,0,0,1-.34-.14,3.8,3.8,0,0,0-.49-.32,3.14,3.14,0,0,0-.71-.32,3.34,3.34,0,0,0-2,0,2.09,2.09,0,0,0-.72.41,1.7,1.7,0,0,0-.43.6,2,2,0,0,0-.14.75,1.38,1.38,0,0,0,.25.85,2.22,2.22,0,0,0,.67.57,5.11,5.11,0,0,0,.94.42l1.07.36q.56.2,1.08.42a4,4,0,0,1,.94.6,2.65,2.65,0,0,1,.66.88,2.86,2.86,0,0,1,.26,1.28,4,4,0,0,1-.28,1.51,3.36,3.36,0,0,1-.8,1.22,3.7,3.7,0,0,1-1.29.82,4.68,4.68,0,0,1-1.73.3,5.26,5.26,0,0,1-2.17-.43,5.13,5.13,0,0,1-1.67-1.17l.48-.78a.61.61,0,0,1,.16-.16.43.43,0,0,1,.22-.06.65.65,0,0,1,.41.19,6.85,6.85,0,0,0,.58.42,4.11,4.11,0,0,0,.84.42,3.2,3.2,0,0,0,1.2.2,3.12,3.12,0,0,0,1.05-.17,2.13,2.13,0,0,0,.78-.45,2,2,0,0,0,.49-.71,2.42,2.42,0,0,0,.17-.91,1.51,1.51,0,0,0-.25-.91,2.12,2.12,0,0,0-.66-.6,4.75,4.75,0,0,0-.94-.4l-1.07-.34c-.37-.12-.73-.26-1.08-.41a3.42,3.42,0,0,1-.94-.6,2.75,2.75,0,0,1-.66-.92,3.21,3.21,0,0,1-.25-1.36,3.27,3.27,0,0,1,1-2.33,3.66,3.66,0,0,1,1.19-.75,4.21,4.21,0,0,1,1.61-.28,5.06,5.06,0,0,1,1.87.32,4.3,4.3,0,0,1,1.48.94Z" transform="translate(-4.57 -4.69)"/><path class="cls-5" d="M378.08,94.77a7,7,0,0,1-.44,2.52,5.72,5.72,0,0,1-1.23,2,5.56,5.56,0,0,1-1.91,1.29,6.95,6.95,0,0,1-4.92,0,5.65,5.65,0,0,1-1.91-1.29,5.72,5.72,0,0,1-1.23-2,7,7,0,0,1-.43-2.52,7.11,7.11,0,0,1,.43-2.53,5.91,5.91,0,0,1,1.23-2A5.51,5.51,0,0,1,369.58,89a6.81,6.81,0,0,1,4.92,0,5.42,5.42,0,0,1,1.91,1.29,5.91,5.91,0,0,1,1.23,2A7.11,7.11,0,0,1,378.08,94.77Zm-1.7,0a6.14,6.14,0,0,0-.31-2,4.16,4.16,0,0,0-.87-1.51,3.82,3.82,0,0,0-1.37-1,5,5,0,0,0-3.58,0,3.9,3.9,0,0,0-1.37,1,4.16,4.16,0,0,0-.87,1.51,6.77,6.77,0,0,0,0,4.05,4.16,4.16,0,0,0,.87,1.51,3.88,3.88,0,0,0,1.37,1,5,5,0,0,0,3.58,0,3.79,3.79,0,0,0,1.37-1,4.16,4.16,0,0,0,.87-1.51A6.08,6.08,0,0,0,376.38,94.77Z" transform="translate(-4.57 -4.69)"/><path class="cls-5" d="M389.22,96.66a6.43,6.43,0,0,1-.25,1.83,3.7,3.7,0,0,1-.75,1.37,3.11,3.11,0,0,1-1.21.86,4.17,4.17,0,0,1-1.64.3,6.67,6.67,0,0,1-1.73-.24c0-.16,0-.33,0-.49s0-.32.05-.48a.45.45,0,0,1,.11-.24.37.37,0,0,1,.27-.09,1.61,1.61,0,0,1,.41.08,2.48,2.48,0,0,0,.68.08,2.89,2.89,0,0,0,1-.17,1.87,1.87,0,0,0,.74-.53,2.41,2.41,0,0,0,.46-.92,4.75,4.75,0,0,0,.16-1.33v-8h1.65Z" transform="translate(-4.57 -4.69)"/><path class="cls-5" d="M407.84,94.77a7,7,0,0,1-.43,2.52,5.72,5.72,0,0,1-1.23,2,5.65,5.65,0,0,1-1.91,1.29,6.58,6.58,0,0,1-2.47.45,6.49,6.49,0,0,1-2.46-.45,5.61,5.61,0,0,1-1.9-1.29,5.72,5.72,0,0,1-1.23-2,7,7,0,0,1-.44-2.52,7.11,7.11,0,0,1,.44-2.53,5.91,5.91,0,0,1,1.23-2,5.47,5.47,0,0,1,1.9-1.29,6.31,6.31,0,0,1,2.46-.46,6.39,6.39,0,0,1,2.47.46,5.51,5.51,0,0,1,1.91,1.29,5.91,5.91,0,0,1,1.23,2A7.11,7.11,0,0,1,407.84,94.77Zm-1.7,0a6.14,6.14,0,0,0-.31-2,4.16,4.16,0,0,0-.87-1.51,3.78,3.78,0,0,0-1.36-1,4.73,4.73,0,0,0-1.8-.33,4.63,4.63,0,0,0-1.78.33,3.73,3.73,0,0,0-1.37,1,4.33,4.33,0,0,0-.88,1.51,6.77,6.77,0,0,0,0,4.05,4.33,4.33,0,0,0,.88,1.51,3.71,3.71,0,0,0,1.37,1,4.63,4.63,0,0,0,1.78.33,4.73,4.73,0,0,0,1.8-.33,3.75,3.75,0,0,0,1.36-1,4.16,4.16,0,0,0,.87-1.51A6.08,6.08,0,0,0,406.14,94.77Z" transform="translate(-4.57 -4.69)"/><path class="cls-5" d="M420.65,90.56a.8.8,0,0,1-.16.19.39.39,0,0,1-.23.06.64.64,0,0,1-.33-.14,3.8,3.8,0,0,0-.49-.32,3.36,3.36,0,0,0-.71-.32,3,3,0,0,0-1-.15,3,3,0,0,0-1,.15,2.14,2.14,0,0,0-.71.41,1.7,1.7,0,0,0-.43.6,1.86,1.86,0,0,0-.15.75,1.39,1.39,0,0,0,.26.85,2.18,2.18,0,0,0,.66.57,5.44,5.44,0,0,0,.94.42l1.08.36q.56.2,1.08.42a4,4,0,0,1,.94.6,2.79,2.79,0,0,1,.66.88,2.86,2.86,0,0,1,.25,1.28,4.21,4.21,0,0,1-.27,1.51,3.36,3.36,0,0,1-.8,1.22,3.7,3.7,0,0,1-1.29.82,4.74,4.74,0,0,1-1.74.3,5.24,5.24,0,0,1-2.16-.43,5.13,5.13,0,0,1-1.67-1.17l.48-.78a.61.61,0,0,1,.16-.16.43.43,0,0,1,.22-.06.65.65,0,0,1,.41.19,5.53,5.53,0,0,0,.58.42,4.28,4.28,0,0,0,.83.42,3.27,3.27,0,0,0,1.2.2,3.14,3.14,0,0,0,1.06-.17,2.31,2.31,0,0,0,.78-.45,2.1,2.1,0,0,0,.49-.71,2.42,2.42,0,0,0,.17-.91,1.51,1.51,0,0,0-.25-.91,2.05,2.05,0,0,0-.67-.6,4.41,4.41,0,0,0-.93-.4l-1.08-.34c-.36-.12-.72-.26-1.07-.41a3.28,3.28,0,0,1-.94-.6,2.75,2.75,0,0,1-.66-.92,3.21,3.21,0,0,1-.25-1.36,3.27,3.27,0,0,1,1-2.33,3.62,3.62,0,0,1,1.18-.75,4.3,4.3,0,0,1,1.62-.28,5.1,5.1,0,0,1,1.87.32,4.3,4.3,0,0,1,1.48.94Z" transform="translate(-4.57 -4.69)"/></svg>